<?xml version="1.0" encoding="UTF-8" standalone="no"?>
<!-- Created with Inkscape (http://www.inkscape.org/) -->

<svg
   width="7.9375mm"
   height="4.3207736mm"
   viewBox="0 0 7.9375 4.3207736"
   version="1.1"
   id="svg5"
   inkscape:version="1.4 (86a8ad7, 2024-10-11)"
   sodipodi:docname="drawing.svg"
   xml:space="preserve"
   xmlns:inkscape="http://www.inkscape.org/namespaces/inkscape"
   xmlns:sodipodi="http://sodipodi.sourceforge.net/DTD/sodipodi-0.dtd"
   xmlns="http://www.w3.org/2000/svg"
   xmlns:svg="http://www.w3.org/2000/svg"><sodipodi:namedview
     id="namedview7"
     pagecolor="#ffffff"
     bordercolor="#000000"
     borderopacity="0.25"
     inkscape:showpageshadow="2"
     inkscape:pageopacity="0.0"
     inkscape:pagecheckerboard="0"
     inkscape:deskcolor="#d1d1d1"
     inkscape:document-units="mm"
     showgrid="false"
     inkscape:zoom="3.955949"
     inkscape:cx="89.106306"
     inkscape:cy="-1.643095"
     inkscape:window-width="1920"
     inkscape:window-height="1017"
     inkscape:window-x="-8"
     inkscape:window-y="-8"
     inkscape:window-maximized="1"
     inkscape:current-layer="layer1"><inkscape:page
       x="0"
       y="0"
       width="7.9375"
       height="4.3207736"
       id="page2"
       margin="0"
       bleed="0" /></sodipodi:namedview><defs
     id="defs2" /><g
     inkscape:label="Layer 1"
     inkscape:groupmode="layer"
     id="layer1"
     transform="translate(-49.542477,-2.3034634)"><g
       style="fill:#ffffff"
       id="g2-8-1-7-4"
       transform="matrix(0,-0.60150382,0.60150382,0,46.285827,11.076923)"
       inkscape:export-filename="..\icons\downArrow-light.png"
       inkscape:export-xdpi="96"
       inkscape:export-ydpi="96"><path
         d="m 14.2893,5.70708 c -0.3905,-0.39053 -1.0236,-0.39053 -1.4142,0 L 7.98768,10.5993 c -0.78039,0.7812 -0.78008,2.047 6.9e-4,2.8277 l 4.89033,4.8904 c 0.3906,0.3905 1.0237,0.3905 1.4143,0 0.3905,-0.3905 0.3905,-1.0237 0,-1.4142 l -4.1857,-4.1857 c -0.39052,-0.3905 -0.39052,-1.0236 0,-1.4142 l 4.182,-4.18201 c 0.3906,-0.39052 0.3906,-1.02369 0,-1.41421 z"
         fill="#0f0f0f"
         id="path1-8-7-6-2"
         style="fill:#ffffff" /></g></g></svg>
