<?xml version="1.0" encoding="UTF-8" standalone="no"?>
<!-- Created with Inkscape (http://www.inkscape.org/) -->

<svg
   width="5.953125mm"
   height="7.9374976mm"
   viewBox="0 0 5.953125 7.9374976"
   version="1.1"
   id="svg5"
   inkscape:version="1.4 (86a8ad7, 2024-10-11)"
   sodipodi:docname="drawing.svg"
   xml:space="preserve"
   xmlns:inkscape="http://www.inkscape.org/namespaces/inkscape"
   xmlns:sodipodi="http://sodipodi.sourceforge.net/DTD/sodipodi-0.dtd"
   xmlns="http://www.w3.org/2000/svg"
   xmlns:svg="http://www.w3.org/2000/svg"><sodipodi:namedview
     id="namedview7"
     pagecolor="#ffffff"
     bordercolor="#000000"
     borderopacity="0.25"
     inkscape:showpageshadow="2"
     inkscape:pageopacity="0.0"
     inkscape:pagecheckerboard="0"
     inkscape:deskcolor="#d1d1d1"
     inkscape:document-units="mm"
     showgrid="false"
     inkscape:zoom="3.955949"
     inkscape:cx="193.25325"
     inkscape:cy="34.504995"
     inkscape:window-width="1920"
     inkscape:window-height="1017"
     inkscape:window-x="-8"
     inkscape:window-y="-8"
     inkscape:window-maximized="1"
     inkscape:current-layer="layer1" /><defs
     id="defs2" /><g
     inkscape:label="Layer 1"
     inkscape:groupmode="layer"
     id="layer1"
     transform="translate(-77.330446,-0.94440452)"><path
       fill="#231f20"
       d="m 80.307009,0.94440454 c -1.643806,0 -2.976562,1.33275596 -2.976562,2.97656196 0,0.647279 0.212204,1.241227 0.564927,1.727647 0.0063,0.01166 0.0073,0.02468 0.01451,0.03584 l 1.984375,2.976562 c 0.09203,0.138038 0.247055,0.220886 0.41275,0.220886 0.165696,0 0.320725,-0.08285 0.41275,-0.220886 l 1.984376,-2.976562 c 0.0073,-0.01116 0.0082,-0.02419 0.01451,-0.03584 0.352723,-0.48642 0.564927,-1.080368 0.564927,-1.727647 0,-1.643806 -1.332756,-2.97656196 -2.976563,-2.97656196 z m 0,3.96874996 c -0.547935,0 -0.992187,-0.444252 -0.992187,-0.992188 0,-0.547935 0.444252,-0.992187 0.992187,-0.992187 0.547936,0 0.992188,0.444252 0.992188,0.992187 0,0.547936 -0.444252,0.992188 -0.992188,0.992188 z"
       id="path1-82"
       style="fill:#000000;stroke-width:0.124023" /></g></svg>
